<svg width="1232" height="344" viewBox="0 0 1232 344" fill="none" xmlns="http://www.w3.org/2000/svg">
<g clip-path="url(#clip0_4576_16688)">
<path d="M135.58 101.92L139.29 101.16C133.74 137.58 128.29 183.69 128.8 198.24C129.06 205.8 134.56 211.24 141.9 211.24C144.216 211.222 146.498 210.675 148.57 209.64C181.8 193.43 202.36 188.21 236.43 179.56C244.43 177.56 246.53 170.79 245.88 165.64C245.13 159.64 240.47 153.53 233.03 153.53C231.839 153.534 230.654 153.685 229.5 153.98C200.34 161.38 180.8 166.65 156.55 176.98C157.08 171.3 157.77 164.74 158.62 157.47C163.33 155.54 167.7 153.73 171.82 152.01C194.52 142.59 209.51 136.36 236.44 129.01C244.44 126.82 246.44 120.01 245.77 114.78C244.97 108.9 240.38 102.94 233.15 102.94C231.882 102.944 230.621 103.119 229.4 103.46C202.13 110.94 187.03 117.22 164.15 126.73L162.42 127.44C164.42 113.21 166.42 99.5301 168.25 88.8301C187.48 80.4301 205.25 76.0701 233.33 70.5101C239.88 69.2101 243.69 64.1001 243.04 57.5101C242.43 51.2501 237.47 44.6001 229.51 44.6001C228.549 44.6034 227.592 44.7006 226.65 44.8901C204.51 49.2801 187.36 53.2401 170.45 59.4201C170.009 58.6981 169.489 58.0273 168.9 57.4201C167.577 56.1107 166.008 55.076 164.283 54.3758C162.558 53.6755 160.712 53.3235 158.85 53.3401C153.96 53.3401 148.11 55.8601 146.37 62.9201C146.19 63.6401 145.86 64.8201 145.47 66.2001V66.3401C144.79 68.7401 143.95 71.7001 143.47 73.9101C140.05 74.9101 127.6 77.1001 115.54 79.1801L114.94 79.2901C100.79 81.7201 84.77 84.4801 74.54 86.8101C74.84 79.0101 75.13 72.1401 75.42 65.8101C75.59 62.0201 75.68 58.1001 75.77 54.2901V52.0901C87.55 50.3501 99.26 48.5401 113.34 46.3601L113.69 46.3001C129.05 43.9201 146.46 41.2201 163.38 38.8101C164.862 38.5718 166.275 38.0193 167.526 37.1897C168.776 36.3601 169.835 35.2725 170.63 34.0001C171.655 32.4327 172.349 30.6727 172.671 28.8278C172.993 26.9829 172.934 25.0917 172.5 23.2701C170.94 17.5801 166.21 14.2001 159.85 14.2001C158.997 14.2013 158.145 14.2615 157.3 14.3801C141.3 16.6701 125.01 19.1901 109.3 21.6301L108.59 21.7501C98.19 23.3701 87.97 24.9501 77.59 26.5201C78.1244 22.886 78.8994 19.2914 79.91 15.7601C80.4984 13.9863 80.6456 12.0958 80.3389 10.2523C80.0323 8.40882 79.2809 6.66784 78.15 5.18006C76.8627 3.55424 75.222 2.24287 73.3525 1.34537C71.483 0.447875 69.4337 -0.0121898 67.36 6.05439e-05C64.665 -0.0815054 62.0227 0.757622 59.8686 2.37912C57.7145 4.00062 56.1771 6.3077 55.51 8.92006C53.5592 15.8655 52.2997 22.9868 51.75 30.1801C37.27 32.1801 24.38 33.7701 12.35 35.0501C5 35.8201 0 40.8901 0 47.6501C0 53.8101 5.75 61.0001 12.89 60.2501C24.38 59.0501 36.69 57.5401 50.53 55.6701C50.46 57.6701 50.39 59.6701 50.3 61.6701C49.86 71.0001 49.44 80.8901 49 93.8101C44.23 95.3201 39.88 96.8101 35.7 98.3501C30.19 100.35 26.25 107.09 26.91 113.27C27.46 118.42 30.91 121.94 36.23 122.7C39.2941 123.224 42.43 123.159 45.47 122.51C46.17 122.36 47.01 122.18 47.98 121.94L47.63 131.94C46.73 157.78 45.8 184.5 44.32 210.77C44.1771 212.35 44.3656 213.943 44.8736 215.446C45.3816 216.95 46.1978 218.33 47.27 219.5C48.46 220.696 49.8797 221.638 51.4437 222.271C53.0076 222.903 54.6833 223.212 56.37 223.18C62.59 223.18 69.11 219.02 69.55 211.06C71.05 184.57 71.98 157.75 72.88 131.82L73.46 115.27C87.36 111.69 118.32 105.43 133.24 102.41L135.58 101.92Z" fill="#D7244F"/>
<path d="M712.37 150.19C711.62 144.19 706.96 138.07 699.51 138.07C698.322 138.077 697.14 138.232 695.99 138.53C665.36 146.3 643.3 152.22 617.6 163.06C618 157.46 618.6 150.9 619.41 143.53C619.61 143.46 619.8 143.4 619.98 143.32C627.86 140.09 634.44 137.32 638.79 135.42C655.23 128.42 664.28 124.57 688.52 117.92C696.52 115.72 698.52 108.92 697.83 103.68C697.05 97.8 692.46 91.84 685.22 91.84C683.956 91.8485 682.699 92.0234 681.48 92.36C656.88 99.11 647.74 103.01 631.16 110.07C628.65 111.14 626.02 112.27 623.16 113.47C625.16 99.21 627.38 84.62 629.51 72.28C637.93 68.74 647.07 66.28 655.68 64.1C667.42 61.16 674.68 59.92 683.1 58.48H683.19C687.52 57.74 692.91 56.83 699.8 55.48C706.35 54.2 710.17 49.12 709.53 42.48C708.93 36.2 703.96 29.48 695.96 29.48C695.017 29.4796 694.076 29.57 693.15 29.75C686.31 31.08 679.64 32.19 673.15 33.27C660.15 35.43 646.64 37.66 633.72 41.65C633.145 39.9543 632.191 38.4119 630.93 37.14C628.263 34.5196 624.669 33.0601 620.93 33.08C616.04 33.08 610.19 35.59 608.45 42.64C607.8 45.28 606.98 49.14 606.03 54.14C600.57 57.5535 595.441 61.4706 590.71 65.84C586.71 69.53 585.49 74.41 587.37 79.24C588.42 81.8185 590.184 84.0437 592.455 85.654C594.726 87.2643 597.409 88.1927 600.19 88.33C594.5 124.84 589.09 169.01 590.9 183.97C591.82 191.51 597.24 196.78 604.1 196.78C606.377 196.76 608.618 196.216 610.65 195.19C643.6 179.11 668.52 172.79 703.01 164.04C710.93 162.07 713 155.34 712.37 150.19Z" fill="#D7244F"/>
<path d="M353.57 214.14C355.04 196.07 357.26 175.01 359.42 154.66V154.21C360.93 139.93 362.49 125.21 363.74 111.87C365.09 97.3199 366.6 81.5999 368.5 65.3299C368.68 63.8399 368.85 62.3299 369.01 60.8299C369.89 52.9999 370.79 44.8999 372.73 37.2099C373.168 35.5908 373.223 33.8919 372.889 32.248C372.556 30.6041 371.844 29.0606 370.81 27.7399C369.554 26.2001 367.971 24.9595 366.175 24.1084C364.38 23.2573 362.417 22.8171 360.43 22.8199C358.329 22.7827 356.257 23.3154 354.435 24.3613C352.613 25.4072 351.108 26.9272 350.08 28.7599C345.08 37.4199 340.65 46.3299 336.34 54.9499C333.63 60.3599 330.56 66.4999 327.48 72.2899C321.8 82.9999 317 91.5399 312.23 99.1499C310.78 101.49 309.36 103.67 307.9 105.79C305.5 99.1999 299.95 83.1299 296.51 70.9399C294.22 62.8799 291.61 54.8699 289.08 47.1099C287.9 43.4799 286.72 39.8399 285.58 36.2599C285.47 35.2599 285.32 34.3199 285.14 33.3799L285.09 33.2399C284.691 32.0488 284.227 30.8804 283.7 29.7399C281.83 26.1299 277.79 23.8799 273.15 23.8799C271.012 23.8715 268.903 24.3756 267 25.3499C265.642 26.0637 264.444 27.0471 263.48 28.2399C263.123 28.5878 262.789 28.9586 262.48 29.3499C261.41 30.7916 260.722 32.4807 260.48 34.2599C259.667 37.7072 259.211 41.2292 259.12 44.7699C259.03 46.3799 258.93 48.0399 258.75 49.3799C256.86 63.3799 255.68 78.2699 254.91 97.7099C253.71 128.46 252.62 170.16 252.07 206.52C252.006 207.976 252.239 209.43 252.754 210.794C253.27 212.157 254.058 213.401 255.07 214.45C256.274 215.61 257.695 216.521 259.251 217.132C260.807 217.743 262.468 218.041 264.14 218.01C270.21 218.01 276.42 214.09 276.54 206.6C276.82 187.88 277.45 166.28 278.05 145.39C278.47 131.03 278.81 119.17 279.05 108.15C279.13 104.88 279.22 101.52 279.35 98.1499C284.73 112.98 291.13 123.9 299.41 132.42C301.731 134.614 304.827 135.801 308.02 135.72C310.333 135.766 312.603 135.095 314.52 133.8C325.85 125.68 333.52 112.62 340.4 99.7299C340.06 103.223 339.727 106.72 339.4 110.22C338.2 123.08 336.68 137.48 335.21 151.41L335.14 152.06C332.91 173.24 330.6 195.14 329.04 214.29C328.875 215.699 329.012 217.126 329.442 218.478C329.871 219.83 330.583 221.074 331.53 222.13C332.655 223.27 334.003 224.167 335.489 224.764C336.975 225.361 338.569 225.645 340.17 225.6C346.4 225.6 353 221.66 353.57 214.14Z" fill="#D7244F"/>
<path d="M392.57 200.92C397.82 184.52 402.66 167.92 406.31 155.19C419.46 148.47 431.48 142.42 443.02 136.69C450.24 160.535 458.923 183.913 469.02 206.69C470.85 210.79 475.36 213.43 480.52 213.43C482.883 213.448 485.21 212.848 487.27 211.69C493.38 208.12 495.34 200.94 492.15 193.82C483.15 173.82 475.02 151.25 467.15 124.91C473.71 121.76 479.61 118.91 485.15 116.33C490.52 113.81 493.08 108.78 491.83 103.21C490.58 97.64 485.39 91.87 478.12 91.87C476.066 91.8823 474.041 92.3502 472.19 93.24C468.123 95.1533 464.007 97.1033 459.84 99.09C456.74 87.52 453.66 75.09 449.84 58.96C448.59 53.59 447.19 48.13 445.58 42.25C444.95 39.95 444.39 37.59 443.88 35.04L443.76 34.42C444.54 32.6011 444.878 30.6233 444.746 28.6486C444.614 26.6739 444.015 24.7586 443 23.06C441.736 21.0508 439.992 19.3881 437.925 18.2218C435.858 17.0556 433.533 16.4226 431.16 16.38C428.818 16.3561 426.531 17.0891 424.64 18.47C421.264 20.8809 418.877 24.4336 417.92 28.47L417.46 28.34L416.92 30.8C404.97 63.23 395.41 96.8 386.17 129.34L384 136.89L383.07 137.38C382.286 137.648 381.527 137.983 380.8 138.38C379.94 138.83 379.12 139.3 378.36 139.75C377.6 140.2 376.88 140.6 376.12 141L373.81 142.19L373.9 142.41C372.051 143.8 370.665 145.716 369.922 147.907C369.18 150.098 369.117 152.462 369.74 154.69C370.679 158.423 373.026 161.649 376.29 163.69C372.91 175.14 370 184.69 367.1 193.69C366.434 195.508 366.224 197.461 366.489 199.379C366.754 201.297 367.486 203.121 368.62 204.69C369.967 206.415 371.696 207.805 373.67 208.75C375.645 209.696 377.811 210.172 380 210.14C382.821 210.215 385.587 209.35 387.863 207.681C390.138 206.012 391.794 203.633 392.57 200.92ZM416.21 120.51C419.36 109.51 423.48 95.31 428.05 80.63L428.27 81.63C429.75 87.98 431.41 95.17 433.27 102.26C434.02 105.18 434.81 108.05 435.58 110.9C429.45 113.89 423.11 117 416.21 120.51Z" fill="#D7244F"/>
<path d="M572.25 163.36C569.996 163.375 567.783 163.963 565.82 165.07C554.91 171 546.11 174.78 537.28 177.32C532.698 178.644 527.959 179.347 523.19 179.41L522.7 179.34C522.04 175.68 522.97 170.47 523.7 166.23C525 158.91 526.49 150.61 527.7 142.23C534.7 94.07 538.42 55.4 539.85 16.84C539.961 15.176 539.728 13.5071 539.167 11.9367C538.607 10.3662 537.729 8.92756 536.59 7.70997C535.327 6.46359 533.829 5.48122 532.182 4.8202C530.536 4.15918 528.774 3.83275 527 3.85997C520.46 3.85997 513.67 8.24997 513.36 16.64C511.52 66.58 507.16 109.34 499.65 151.21C499.41 152.56 499.13 153.96 498.84 155.47L498.74 156C495.74 171.66 491.91 191.15 507.41 201.52C511.92 204.52 517.41 206 524.07 206C530.123 205.83 536.137 204.981 542 203.47C555.22 200.42 567.62 194.25 579 188.02C584.38 185.1 586.7 179.88 585.22 174.02C583.93 168.75 579 163.36 572.25 163.36Z" fill="#D7244F"/>
<path d="M1027.42 171.7H1026.42C1015.65 171.7 1009.84 180.33 1009.65 188.85C1009.46 197.04 1014.47 206.1 1025.88 206.6H1026.77C1037.59 206.6 1043.45 197.98 1043.64 189.46C1043.81 181.26 1038.81 172.2 1027.42 171.7Z" fill="#D7244F"/>
<path d="M895 74.5099C891.36 48.5099 875.43 26.2499 853.42 16.3699C845.931 12.9792 837.811 11.204 829.59 11.1599C814.18 11.1599 800.74 17.5599 791.77 29.1599C789.195 32.4065 786.975 35.9199 785.15 39.6399C784.06 41.7645 783.547 44.1381 783.663 46.5232C783.779 48.9082 784.519 51.221 785.81 53.2299C787.753 56.3533 790.762 58.6662 794.28 59.7399C793.63 79.3999 793.49 99.7399 793.85 120.14C794.11 134.46 794.64 151.4 796.67 168.51L797.01 171.45C794.82 171.7 792.69 171.85 790.66 171.9C781.76 172.11 777.2 179.22 777.29 186.13C777.36 192.59 781.52 199.52 790.46 199.52H790.81C795.078 199.412 799.334 199.022 803.55 198.35C804.201 199.627 804.957 200.848 805.81 202C808.9 206.14 813.24 208.51 817.73 208.51C820.109 208.499 822.441 207.846 824.48 206.62C826.192 205.556 827.668 204.153 828.817 202.496C829.966 200.84 830.763 198.966 831.16 196.99C831.656 194.709 831.497 192.334 830.7 190.14C845.377 183.299 858.396 173.358 868.86 161C889.72 136.42 899.25 104.9 895 74.5099ZM822.75 39.5099C824.695 38.7675 826.77 38.4273 828.85 38.5099H830.4C833.584 38.6232 836.726 39.2793 839.69 40.4499C853.38 45.0699 864.39 59.8299 867.75 78.0199C871.54 98.5799 864.08 123.92 848.75 142.56C841.838 150.974 833.345 157.952 823.75 163.1C822.12 147.68 821.68 131.84 821.44 117.02C821 90.6799 821.44 64.5999 822.75 39.4999V39.5099Z" fill="#D7244F"/>
<path d="M991.91 128.82C989.91 110.33 987.75 91.21 984.2 72.6C981.74 59.73 978.94 46.09 974.08 33.13C971.89 27.28 969.56 21.7 965.14 17.67C961.942 14.6969 957.746 13.0306 953.38 13C951.114 13.0004 948.873 13.48 946.805 14.4072C944.737 15.3343 942.888 16.6882 941.38 18.38C939.656 20.1945 938.475 22.4559 937.972 24.9075C937.468 27.3591 937.661 29.9028 938.53 32.25C938.552 32.3314 938.579 32.4116 938.61 32.49C938.411 32.8898 938.234 33.3005 938.08 33.72C933.08 46.97 928.65 60.54 924.32 73.66V73.76C919.51 88.35 915.14 101.49 910.23 114.51C903.51 116.67 901.74 122.68 902.28 127.21C902.468 128.68 902.886 130.111 903.52 131.45C901.25 136.99 898.67 143.45 896.67 149.76C893.95 158.36 890.81 171.07 894.99 182.02C897.31 188.02 902.39 191.82 908.25 191.82C909.473 191.819 910.691 191.655 911.87 191.33C913.77 190.752 915.533 189.795 917.053 188.518C918.574 187.242 919.821 185.671 920.72 183.9C921.523 182.394 921.999 180.736 922.118 179.034C922.237 177.331 921.996 175.623 921.41 174.02C919.27 168.43 921.94 160.77 924.29 154.02L924.85 152.43C926.7 147.05 928.92 141.73 931.06 136.58L931.64 135.17C941.08 133.17 950.96 131.34 964.57 129.05L965.25 135.22C967.82 158.73 970.49 183.03 976.15 206.5C976.731 209.391 978.313 211.984 980.618 213.822C982.923 215.661 985.803 216.627 988.75 216.55C990.98 216.536 993.179 216.031 995.193 215.072C997.206 214.113 998.984 212.723 1000.4 211C1001.68 209.387 1002.55 207.497 1002.96 205.482C1003.37 203.466 1003.3 201.383 1002.76 199.4C997.18 176.28 994.5 152.16 991.91 128.82ZM961.51 104.38C953.94 105.65 947.67 106.74 941.86 107.81C944.81 99.33 947.72 90.55 950.45 82.3L950.75 81.39C952.06 77.45 953.58 72.84 955.17 68.11C956.42 73.78 957.63 80.11 958.9 87.33C959.21 89.1 959.5 90.88 959.77 92.65C959.88 93.37 960 94.09 960.09 94.81L960.44 97.18C960.52 97.77 960.59 98.18 960.62 98.4C960.93 100.38 961.23 102.38 961.51 104.38Z" fill="#D7244F"/>
<path d="M1040.48 91.88C1040.63 89.49 1040.78 87.01 1040.95 84.34V84.08C1041.27 78.66 1041.51 75.46 1041.69 73.08V72.53C1042.01 68.31 1042.21 65.76 1042.52 56.08C1042.52 55.15 1042.58 54.2 1042.62 53.25L1042.68 51.77C1043.07 42.17 1043.47 32.24 1040.96 23.03C1040.23 20.0573 1038.5 17.4241 1036.07 15.5684C1033.64 13.7126 1030.64 12.7463 1027.58 12.83C1025.38 12.81 1023.2 13.287 1021.21 14.2253C1019.21 15.1637 1017.46 16.5394 1016.07 18.25C1014.86 19.8232 1014.05 21.6636 1013.7 23.6161C1013.35 25.5687 1013.48 27.5763 1014.07 29.47C1014.43 30.8555 1014.68 32.2661 1014.83 33.69V34.56C1014.92 36.01 1014.96 37.43 1014.99 38.63C1015.18 45.24 1014.99 51.79 1014.73 58.47C1014.39 68.08 1014.13 71.39 1013.73 76.04V76.17C1013.5 79.17 1013.21 82.85 1012.82 89.51L1012.5 94.83C1011.8 106.27 1011.3 114.55 1011.43 127.5C1011.43 128.17 1011.43 128.9 1011.43 129.67V130C1011.43 140.4 1011.43 157.8 1024.68 159.87C1025.79 160.041 1026.9 160.128 1028.02 160.13C1032.59 160.13 1036.02 158.52 1038.38 155.33C1042.09 150.17 1041.07 142.67 1039.87 139.05C1039.62 138.198 1039.45 137.324 1039.36 136.44C1039.36 136.34 1039.36 136.01 1039.3 135.53V135.29C1039.3 134.85 1039.22 134.4 1039.2 134.2C1039.13 132.94 1039.09 131.67 1039.06 130.43V130.15C1038.99 127.21 1039.06 124.15 1039.06 121.54C1039.36 109.73 1039.83 102.24 1040.48 91.88Z" fill="#D7244F"/>
<path d="M1220 20.11C1218.11 20.0806 1216.25 20.5224 1214.58 21.3955C1212.9 22.2686 1211.47 23.5453 1210.42 25.11L1209.97 24.98L1208.97 27.98C1203.78 43 1197.61 58.08 1191.08 74L1191.01 74.17C1188.25 80.91 1185.95 86.55 1183.71 92.17C1177.83 83.73 1171.71 74.71 1165.16 64.65C1162.87 61.15 1161.67 59.54 1160.69 58.24C1158.94 55.9088 1157.35 53.4633 1155.93 50.92C1153.93 47.55 1152.17 44.39 1150.54 41.27C1149.94 40.11 1149.32 38.86 1148.67 37.47L1148.41 36.84C1148.24 36.4 1148.09 35.92 1147.95 35.46C1147.29 33.1136 1145.86 31.0545 1143.9 29.6064C1141.94 28.1582 1139.55 27.4032 1137.11 27.46C1135.24 27.4463 1133.39 27.8641 1131.7 28.6809C1130.02 29.4977 1128.55 30.6917 1127.4 32.17C1126.38 33.5666 1125.71 35.1946 1125.47 36.9095C1125.22 38.6243 1125.41 40.3729 1126 42V42.12C1132.07 56.03 1135.07 60.61 1141.65 70.62C1142.58 72.03 1143.55 73.53 1144.65 75.17L1144.71 75.25C1154.91 90.93 1164.44 104.85 1173.85 117.79C1163.37 146.92 1157.85 170.54 1156.49 192.12C1156.35 193.567 1156.52 195.026 1156.98 196.404C1157.44 197.782 1158.19 199.047 1159.17 200.12C1160.24 201.211 1161.52 202.072 1162.94 202.65C1164.35 203.228 1165.87 203.51 1167.4 203.48C1172.99 203.48 1178.89 199.73 1179.34 192.56C1181.68 155.47 1197.45 117.56 1212.68 80.81L1212.8 80.51C1217.88 68.26 1222.69 56.68 1227.05 45.06C1227.79 44.0299 1228.36 42.8892 1228.75 41.68C1229.15 40.45 1229.5 39.2 1229.87 37.84C1230.18 36.73 1230.5 35.58 1230.87 34.44C1231.46 32.8603 1231.66 31.1587 1231.44 29.486C1231.21 27.8132 1230.58 26.2208 1229.6 24.85C1228.48 23.3707 1227.02 22.1726 1225.36 21.35C1223.69 20.5275 1221.86 20.103 1220 20.11Z" fill="#D7244F"/>
<path d="M1131.71 159.89C1129.43 159.909 1127.2 160.5 1125.21 161.61C1115.21 167.07 1107.11 170.53 1099.02 172.86C1095.06 173.996 1090.98 174.627 1086.86 174.74C1086.57 171.66 1087.3 167.49 1087.86 164.06L1087.93 163.71C1089.14 156.95 1090.51 149.3 1091.62 141.65C1097.87 98.5099 1101.62 59.45 1102.95 22.24C1103.06 20.544 1102.81 18.8443 1102.24 17.245C1101.67 15.6458 1100.77 14.1808 1099.61 12.94C1098.33 11.6755 1096.82 10.6791 1095.15 10.0093C1093.48 9.33959 1091.7 9.01 1089.9 9.03996C1083.29 9.03996 1076.44 13.48 1076.13 21.98C1074.73 59.69 1070.55 101.47 1063.35 149.7C1063.09 151.51 1062.74 153.44 1062.35 155.76C1059.81 169.97 1056.64 187.67 1071.07 197.31C1075.44 200.24 1080.69 201.66 1087.13 201.66C1092.81 201.501 1098.46 200.703 1103.97 199.28C1116.32 196.43 1127.88 190.67 1138.54 184.89C1144 181.89 1146.36 176.6 1144.86 170.68C1143.51 165.32 1138.55 159.89 1131.71 159.89Z" fill="#D7244F"/>
<path d="M1231.55 247.88H691.61V343.4H1231.55V247.88Z" fill="#D8254F"/>
<path d="M777.82 304C776.523 302.659 774.936 301.632 773.18 301C771.121 300.21 769.017 299.542 766.88 299C764.535 298.408 762.225 297.687 759.96 296.84C757.756 296.038 755.641 295.009 753.65 293.77C751.689 292.498 750.093 290.737 749.02 288.66C747.755 286.188 747.135 283.436 747.22 280.66C747.184 278.403 747.653 276.167 748.592 274.115C749.532 272.063 750.918 270.247 752.65 268.8C756.27 265.627 761.17 264.04 767.35 264.04C769.563 264.033 771.768 264.312 773.91 264.87C775.72 265.328 777.469 265.999 779.12 266.87C780.379 267.546 781.595 268.301 782.76 269.13C783.586 269.718 784.349 270.388 785.04 271.13L785.72 271.98L779.61 278.13C779.5 278.02 779.34 277.83 779.12 277.56C778.682 277.085 778.196 276.656 777.67 276.28C776.904 275.686 776.091 275.154 775.24 274.69C774.153 274.138 773.005 273.716 771.82 273.43C770.36 273.056 768.857 272.871 767.35 272.88C764.61 272.744 761.909 273.575 759.72 275.23C758.844 275.861 758.128 276.688 757.628 277.644C757.128 278.601 756.859 279.661 756.84 280.74C756.793 282.493 757.436 284.195 758.63 285.48C759.927 286.821 761.515 287.847 763.27 288.48C765.329 289.27 767.432 289.938 769.57 290.48C771.911 291.077 774.22 291.792 776.49 292.62C778.695 293.411 780.81 294.434 782.8 295.67C784.764 296.947 786.36 298.716 787.43 300.8C788.686 303.258 789.305 305.991 789.23 308.75C789.304 311.251 788.821 313.737 787.816 316.029C786.812 318.321 785.31 320.36 783.42 322C779.54 325.42 774.183 327.13 767.35 327.13C764.651 327.147 761.962 326.811 759.35 326.13C757.185 325.596 755.095 324.793 753.13 323.74C751.655 322.908 750.242 321.972 748.9 320.94C747.967 320.233 747.097 319.447 746.3 318.59L745.44 317.52L751.55 311.41C751.67 311.58 751.86 311.83 752.13 312.16C752.701 312.771 753.312 313.342 753.96 313.87C754.92 314.681 755.958 315.395 757.06 316C758.466 316.728 759.953 317.288 761.49 317.67C763.391 318.179 765.352 318.431 767.32 318.42C771.107 318.42 774.107 317.493 776.32 315.64C777.359 314.822 778.196 313.776 778.766 312.583C779.337 311.39 779.625 310.082 779.61 308.76C779.641 307.888 779.499 307.018 779.192 306.201C778.885 305.384 778.418 304.636 777.82 304Z" fill="white"/>
<path d="M861 265V273.76H842.59V326.28H833V273.76H814.6V265H861Z" fill="white"/>
<path d="M928.79 313.5C930.34 311.974 931.566 310.149 932.393 308.137C933.219 306.124 933.63 303.965 933.6 301.79V265H943.26V301.79C943.311 305.138 942.668 308.459 941.37 311.546C940.072 314.632 938.148 317.415 935.72 319.72C930.823 324.484 924.261 327.149 917.43 327.149C910.599 327.149 904.037 324.484 899.14 319.72C896.716 317.416 894.794 314.636 893.497 311.554C892.199 308.471 891.553 305.154 891.6 301.81V265H901.25V301.79C901.221 303.97 901.631 306.133 902.458 308.15C903.284 310.168 904.51 311.997 906.06 313.53C907.52 315.079 909.282 316.313 911.236 317.156C913.19 317.999 915.296 318.435 917.425 318.435C919.554 318.435 921.66 317.999 923.614 317.156C925.568 316.313 927.33 315.079 928.79 313.53V313.5Z" fill="white"/>
<path d="M1002.31 265C1006.39 264.941 1010.43 265.714 1014.2 267.272C1017.97 268.829 1021.38 271.139 1024.23 274.06C1027.13 276.858 1029.43 280.211 1031.01 283.918C1032.58 287.626 1033.39 291.612 1033.39 295.64C1033.39 299.668 1032.58 303.654 1031.01 307.362C1029.43 311.069 1027.13 314.422 1024.23 317.22C1021.38 320.141 1017.97 322.45 1014.2 324.008C1010.43 325.566 1006.39 326.339 1002.31 326.28H980.85V265H1002.31ZM990.47 273.76V317.52H1002.31C1005.14 317.57 1007.95 317.032 1010.56 315.938C1013.17 314.845 1015.52 313.221 1017.47 311.17C1021.48 306.994 1023.72 301.429 1023.72 295.64C1023.72 289.851 1021.48 284.286 1017.47 280.11C1015.52 278.06 1013.17 276.438 1010.56 275.345C1007.95 274.252 1005.14 273.712 1002.31 273.76H990.47Z" fill="white"/>
<path d="M1068.36 265H1078V326.28H1068.38L1068.36 265Z" fill="white"/>
<path d="M1122.28 273.29C1128.49 267.197 1136.16 264.15 1145.28 264.15C1154.4 264.15 1162.09 267.197 1168.34 273.29C1171.29 276.216 1173.63 279.698 1175.23 283.534C1176.83 287.37 1177.65 291.484 1177.65 295.64C1177.65 299.795 1176.83 303.91 1175.23 307.746C1173.63 311.582 1171.29 315.063 1168.34 317.99C1162.13 324.09 1154.44 327.14 1145.28 327.14C1136.12 327.14 1128.45 324.09 1122.28 317.99C1119.33 315.065 1116.98 311.584 1115.38 307.747C1113.78 303.911 1112.96 299.796 1112.96 295.64C1112.96 291.484 1113.78 287.369 1115.38 283.532C1116.98 279.696 1119.33 276.215 1122.28 273.29ZM1129.18 311.8C1132.92 315.599 1137.85 317.983 1143.15 318.546C1148.45 319.108 1153.78 317.813 1158.23 314.883C1162.68 311.953 1165.97 307.568 1167.55 302.479C1169.13 297.389 1168.89 291.91 1166.87 286.978C1164.86 282.045 1161.19 277.965 1156.51 275.434C1151.82 272.904 1146.39 272.079 1141.17 273.102C1135.94 274.124 1131.22 276.931 1127.84 281.041C1124.45 285.152 1122.59 290.312 1122.58 295.64C1122.52 298.641 1123.07 301.623 1124.21 304.402C1125.34 307.182 1127.04 309.699 1129.18 311.8Z" fill="white"/>
</g>
<defs>
<clipPath id="clip0_4576_16688">
<rect width="1231.56" height="343.4" fill="white"/>
</clipPath>
</defs>
</svg>
